<svg aria-hidden="true" style="position: absolute; width: 0; height: 0; overflow: hidden;" version="1.1" xmlns="http://www.w3.org/2000/svg" xmlns:xlink="http://www.w3.org/1999/xlink">
<defs>
<symbol id="icon-search" viewBox="0 0 32 32">
<path d="M24.662 21.782l7.11 6.701c0.318 0.332 0.302 0.841-0.035 1.156l-1.244 1.173c-0.167 0.159-0.394 0.248-0.631 0.248s-0.464-0.089-0.631-0.248l-7.11-6.701c-0.197-0.185-0.375-0.387-0.533-0.603l-1.333-1.675c-2.206 1.66-4.945 2.564-7.767 2.563-5.816 0.019-10.871-3.762-12.171-9.106s1.502-10.822 6.746-13.194 11.532-1.001 15.14 3.298c3.608 4.3 3.574 10.382-0.082 14.645l1.777 1.156c0.278 0.168 0.534 0.364 0.764 0.586zM3.6 12.669c0 4.626 3.979 8.376 8.887 8.376 2.357 0 4.618-0.882 6.284-2.453s2.603-3.701 2.603-5.923c0-4.626-3.979-8.376-8.887-8.376s-8.887 3.75-8.887 8.376z"></path>
</symbol>
<symbol id="icon-logo-2" viewBox="0 0 32 32">
<path d="M1.385 16.239c0.022 0.041 0.041 0.085 0.059 0.13 0.019 0.044 0.038 0.089 0.055 0.134 0.018-0.047 0.036-0.093 0.055-0.138s0.039-0.089 0.061-0.13l0.816-1.555c0.010-0.019 0.020-0.035 0.031-0.047 0.011-0.012 0.023-0.020 0.036-0.025 0.014-0.005 0.029-0.008 0.046-0.010s0.036-0.002 0.059-0.002h0.387v2.807h-0.452v-1.813c0-0.034 0.001-0.071 0.002-0.111 0.003-0.040 0.006-0.081 0.010-0.122l-0.833 1.592c-0.019 0.036-0.044 0.065-0.074 0.085-0.030 0.019-0.066 0.029-0.107 0.029h-0.071c-0.041 0-0.076-0.010-0.107-0.029-0.030-0.021-0.055-0.049-0.074-0.085l-0.845-1.598c0.005 0.043 0.008 0.085 0.010 0.126 0.003 0.040 0.004 0.078 0.004 0.113v1.813h-0.452v-2.807h0.387c0.023 0 0.043 0.001 0.059 0.002s0.031 0.005 0.044 0.010c0.014 0.005 0.027 0.014 0.038 0.025s0.022 0.027 0.032 0.047l0.824 1.559z"></path>
<path d="M7.877 17.403h-0.397c-0.045 0-0.081-0.011-0.111-0.033-0.028-0.023-0.048-0.052-0.061-0.085l-0.206-0.573h-1.142l-0.206 0.573c-0.010 0.030-0.031 0.057-0.061 0.082-0.029 0.025-0.065 0.037-0.109 0.037h-0.399l1.083-2.807h0.524l1.083 2.807zM6.092 16.344h0.879l-0.336-0.934c-0.015-0.041-0.032-0.090-0.051-0.146-0.018-0.057-0.036-0.118-0.053-0.184-0.018 0.066-0.036 0.127-0.053 0.184-0.017 0.057-0.033 0.107-0.050 0.149l-0.336 0.93z"></path>
<path d="M10.337 14.597c0.023 0 0.042 0.001 0.057 0.004 0.015 0.001 0.029 0.005 0.040 0.012 0.013 0.005 0.025 0.014 0.036 0.025 0.011 0.010 0.024 0.025 0.038 0.043l1.448 1.877c-0.005-0.045-0.009-0.089-0.011-0.132-0.001-0.044-0.002-0.085-0.002-0.122v-1.706h0.452v2.807h-0.265c-0.041 0-0.074-0.006-0.101-0.019s-0.053-0.036-0.078-0.070l-1.442-1.869c0.004 0.041 0.006 0.083 0.008 0.124 0.003 0.040 0.004 0.077 0.004 0.111v1.724h-0.452v-2.807h0.269z"></path>
<path d="M15.437 17.403h-0.515v-2.807h0.515v2.807z"></path>
<path d="M19.705 14.597v0.415h-1.223v0.831h1.032v0.417h-1.032v1.143h-0.517v-2.807h1.739z"></path>
<path d="M23.754 14.597v0.415h-1.222v0.778h0.963v0.402h-0.963v0.794h1.222v0.417h-1.739v-2.807h1.739z"></path>
<path d="M27.582 15.107c-0.014 0.028-0.030 0.049-0.050 0.060-0.018 0.012-0.039 0.017-0.065 0.017s-0.054-0.010-0.086-0.029c-0.032-0.021-0.069-0.043-0.113-0.068s-0.094-0.047-0.153-0.066c-0.057-0.021-0.125-0.031-0.204-0.031-0.071 0-0.134 0.009-0.187 0.027-0.052 0.017-0.097 0.041-0.134 0.072-0.036 0.031-0.062 0.069-0.080 0.113-0.018 0.043-0.027 0.090-0.027 0.142 0 0.066 0.018 0.121 0.053 0.165 0.037 0.044 0.085 0.082 0.145 0.113s0.128 0.059 0.204 0.083c0.076 0.025 0.154 0.051 0.233 0.080 0.080 0.027 0.158 0.060 0.235 0.097 0.076 0.036 0.144 0.083 0.204 0.14 0.060 0.056 0.107 0.124 0.143 0.206 0.037 0.082 0.055 0.181 0.055 0.297 0 0.127-0.022 0.246-0.065 0.357-0.042 0.11-0.104 0.206-0.187 0.289-0.081 0.082-0.181 0.146-0.299 0.194-0.118 0.047-0.254 0.070-0.406 0.070-0.088 0-0.174-0.009-0.259-0.027-0.085-0.017-0.167-0.041-0.246-0.074-0.078-0.032-0.151-0.071-0.219-0.116-0.067-0.045-0.128-0.096-0.181-0.151l0.149-0.25c0.014-0.018 0.030-0.033 0.050-0.045 0.020-0.013 0.043-0.019 0.067-0.019 0.032 0 0.066 0.014 0.103 0.041 0.037 0.026 0.080 0.055 0.13 0.087 0.051 0.032 0.11 0.062 0.177 0.089 0.069 0.026 0.151 0.039 0.246 0.039 0.146 0 0.259-0.035 0.339-0.105 0.080-0.071 0.12-0.173 0.12-0.305 0-0.074-0.019-0.134-0.055-0.181-0.036-0.047-0.083-0.085-0.143-0.116-0.060-0.032-0.128-0.060-0.204-0.082s-0.154-0.046-0.233-0.072-0.156-0.057-0.233-0.093c-0.076-0.036-0.144-0.083-0.204-0.142s-0.108-0.131-0.145-0.217c-0.036-0.088-0.053-0.196-0.053-0.324 0-0.102 0.020-0.202 0.059-0.299 0.041-0.097 0.099-0.183 0.175-0.258 0.078-0.075 0.172-0.135 0.284-0.181s0.24-0.068 0.383-0.068c0.163 0 0.313 0.026 0.45 0.078s0.254 0.124 0.351 0.217l-0.126 0.247z"></path>
<path d="M32 14.597v0.429h-0.83v2.378h-0.513v-2.378h-0.833v-0.429h2.176z"></path>
</symbol>
<symbol id="icon-logo-1" viewBox="0 0 32 32">
<path d="M2.986 14.675v2.65h-0.451v-1.711c0-0.068 0.004-0.142 0.011-0.222l-0.832 1.504c-0.039 0.072-0.1 0.108-0.181 0.108h-0.072c-0.081 0-0.142-0.036-0.181-0.108l-0.842-1.51c0.004 0.040 0.007 0.080 0.010 0.119s0.004 0.075 0.004 0.108v1.711h-0.451v-2.65h0.387c0.023 0 0.043 0.001 0.059 0.002s0.031 0.004 0.044 0.009c0.014 0.005 0.026 0.013 0.036 0.024 0.011 0.011 0.022 0.026 0.032 0.044l0.825 1.471c0.022 0.039 0.041 0.079 0.059 0.121 0.019 0.042 0.037 0.084 0.055 0.128 0.018-0.045 0.036-0.089 0.055-0.13 0.019-0.043 0.039-0.084 0.061-0.123l0.813-1.468c0.010-0.018 0.021-0.033 0.032-0.044s0.023-0.019 0.036-0.024c0.014-0.005 0.029-0.008 0.046-0.009s0.036-0.002 0.059-0.002h0.387z"></path>
<path d="M6.959 16.324l-0.335-0.881c-0.016-0.039-0.034-0.085-0.051-0.139s-0.036-0.112-0.053-0.174c-0.016 0.062-0.034 0.121-0.051 0.176-0.018 0.054-0.035 0.101-0.051 0.141l-0.333 0.878h0.876zM7.864 17.325h-0.396c-0.044 0-0.081-0.010-0.109-0.031-0.028-0.022-0.049-0.049-0.063-0.081l-0.206-0.541h-1.141l-0.206 0.541c-0.010 0.028-0.030 0.054-0.059 0.077s-0.065 0.035-0.109 0.035h-0.4l1.083-2.65h0.522l1.082 2.65z"></path>
<path d="M12.374 14.675v2.65h-0.263c-0.041 0-0.075-0.006-0.103-0.018-0.027-0.013-0.053-0.035-0.078-0.066l-1.438-1.766c0.008 0.081 0.011 0.155 0.011 0.224v1.627h-0.451v-2.65h0.268c0.022 0 0.040 0.001 0.055 0.004 0.017 0.001 0.030 0.005 0.042 0.011 0.013 0.005 0.025 0.013 0.036 0.024 0.011 0.010 0.024 0.023 0.038 0.040l1.443 1.774c-0.004-0.043-0.007-0.085-0.010-0.126s-0.004-0.080-0.004-0.115v-1.611h0.451z"></path>
<path d="M15.406 17.325h-0.514v-2.65h0.514v2.65z"></path>
<path d="M18.44 15.067v0.784h1.032v0.394h-1.032v1.079h-0.514v-2.65h1.737v0.392h-1.223z"></path>
<path d="M22.502 15.067v0.735h0.964v0.379h-0.964v0.749h1.223v0.394h-1.737v-2.65h1.737v0.392h-1.223z"></path>
<path d="M27.548 15.157c-0.015 0.026-0.032 0.045-0.049 0.057-0.016 0.011-0.037 0.017-0.063 0.017-0.027 0-0.056-0.009-0.088-0.027-0.030-0.020-0.067-0.041-0.11-0.064s-0.094-0.044-0.152-0.062c-0.057-0.020-0.125-0.029-0.204-0.029-0.071 0-0.133 0.009-0.187 0.026-0.053 0.016-0.098 0.038-0.135 0.068-0.035 0.029-0.062 0.065-0.080 0.106-0.018 0.040-0.027 0.085-0.027 0.134 0 0.062 0.018 0.114 0.053 0.156 0.037 0.042 0.085 0.077 0.145 0.106s0.128 0.056 0.204 0.079c0.076 0.023 0.154 0.048 0.234 0.075 0.080 0.026 0.158 0.056 0.234 0.092 0.076 0.034 0.144 0.078 0.204 0.132 0.060 0.053 0.107 0.117 0.143 0.194 0.037 0.077 0.055 0.17 0.055 0.28 0 0.12-0.022 0.232-0.065 0.337-0.042 0.104-0.104 0.195-0.187 0.273-0.081 0.077-0.181 0.138-0.299 0.183-0.118 0.044-0.253 0.066-0.406 0.066-0.088 0-0.174-0.009-0.259-0.026-0.085-0.016-0.167-0.039-0.246-0.070s-0.151-0.067-0.219-0.11-0.13-0.090-0.183-0.143l0.151-0.236c0.013-0.017 0.029-0.031 0.049-0.042 0.020-0.012 0.042-0.018 0.065-0.018 0.032 0 0.066 0.013 0.103 0.038 0.037 0.024 0.081 0.052 0.131 0.082s0.11 0.059 0.177 0.084c0.068 0.024 0.15 0.037 0.246 0.037 0.146 0 0.259-0.033 0.339-0.099 0.080-0.067 0.12-0.163 0.12-0.288 0-0.070-0.018-0.126-0.055-0.17-0.036-0.044-0.083-0.081-0.143-0.11-0.060-0.031-0.128-0.056-0.204-0.077s-0.154-0.043-0.232-0.068c-0.079-0.024-0.156-0.054-0.232-0.088s-0.144-0.079-0.204-0.134c-0.060-0.055-0.108-0.123-0.145-0.205-0.035-0.083-0.053-0.185-0.053-0.306 0-0.097 0.020-0.191 0.059-0.282 0.041-0.092 0.099-0.173 0.175-0.244s0.17-0.128 0.282-0.17 0.24-0.064 0.385-0.064c0.163 0 0.312 0.024 0.449 0.073s0.254 0.117 0.35 0.205l-0.128 0.233z"></path>
<path d="M32 15.080h-0.83v2.245h-0.512v-2.245h-0.83v-0.405h2.173v0.405z"></path>
</symbol>
<symbol id="icon-arrow-1" viewBox="0 0 32 32">
<path d="M31.704 16.715c0.395-0.395 0.395-1.034 0-1.429l-6.431-6.431c-0.395-0.395-1.035-0.395-1.429 0s-0.395 1.034 0 1.429l5.716 5.716-5.716 5.716c-0.395 0.395-0.395 1.035 0 1.429s1.035 0.395 1.429 0l6.431-6.431zM0 17.011h30.989v-2.021h-30.989v2.021z"></path>
</symbol>
</defs>
</svg>
