<svg aria-hidden="true" style="position: absolute; width: 0; height: 0; overflow: hidden;" version="1.1" xmlns="http://www.w3.org/2000/svg" xmlns:xlink="http://www.w3.org/1999/xlink">
<defs>
<symbol id="icon-pointer" viewBox="0 0 32 32">
<path d="M12.478 0c1.477 0 2.739 1.291 2.739 2.8v6.241c1.065-1.021 3.11-1.147 4.434 0.394 1.427-0.893 3.314-0.134 3.895 1.028 3.071-0.561 4.454 1.372 4.454 4.538 0 0.172-0.013 0.83-0.012 1 0.011 3.873-1.942 4.806-2.395 7.733-0.113 0.729-0.743 1.267-1.481 1.267h-10.72c-1.148-0.001-2.243-0.663-2.74-1.779-0.812-1.805-3.065-5.963-4.833-6.721-1.137-0.487-1.818-1.336-1.818-2.5-0.001-2.139 2.194-3.61 4.182-2.757 0.522 0.224 1.042 0.52 1.557 0.885v-9.327c0-1.466 1.284-2.8 2.739-2.8zM12.5 26h12c0.828 0 1.5 0.672 1.5 1.5v3c0 0.828-0.672 1.5-1.5 1.5h-12c-0.828 0-1.5-0.672-1.5-1.5v-3c0-0.828 0.672-1.5 1.5-1.5zM23 27.75c-0.69 0-1.25 0.56-1.25 1.25s0.56 1.25 1.25 1.25c0.69 0 1.25-0.56 1.25-1.25s-0.56-1.25-1.25-1.25z"></path>
</symbol>
<symbol id="icon-like" viewBox="0 0 32 32">
<path d="M28.894 3.915c-3.425-2.919-8.519-2.394-11.662 0.85l-1.231 1.269-1.231-1.269c-3.137-3.244-8.237-3.769-11.662-0.85-3.925 3.35-4.131 9.362-0.619 12.993l12.094 12.487c0.781 0.806 2.050 0.806 2.831 0l12.094-12.487c3.519-3.631 3.313-9.644-0.612-12.993z"></path>
</symbol>
<symbol id="icon-download" viewBox="0 0 32 32">
<path d="M13.5 0h5c0.831 0 1.5 0.669 1.5 1.5v10.5h5.481c1.112 0 1.669 1.344 0.881 2.131l-9.506 9.512c-0.469 0.469-1.238 0.469-1.706 0l-9.519-9.512c-0.787-0.787-0.231-2.131 0.881-2.131h5.487v-10.5c0-0.831 0.669-1.5 1.5-1.5zM32 23.5v7c0 0.831-0.669 1.5-1.5 1.5h-29c-0.831 0-1.5-0.669-1.5-1.5v-7c0-0.831 0.669-1.5 1.5-1.5h9.169l3.063 3.063c1.256 1.256 3.281 1.256 4.538 0l3.062-3.063h9.169c0.831 0 1.5 0.669 1.5 1.5zM24.25 29c0-0.688-0.562-1.25-1.25-1.25s-1.25 0.562-1.25 1.25c0 0.688 0.562 1.25 1.25 1.25s1.25-0.562 1.25-1.25zM28.25 29c0-0.688-0.562-1.25-1.25-1.25s-1.25 0.562-1.25 1.25c0 0.688 0.562 1.25 1.25 1.25s1.25-0.562 1.25-1.25z"></path>
</symbol>
</defs>
</svg>
